# xmcd
#
# Track frame offsets: 
#        150
#        17574
#        34963
#        50702
#        65816
#        83359
#        101667
#        115774
#        134060
#        151840
#        168378
#        182580
#        197049
#        213389
#        227198
#        240725
#
# Disc length: 3456 seconds
#
# Revision: 0
# Processed by: cddbd v1.5.2PL0 Copyright (c) Steve Scherf et al.
# Submitted via: ExactAudioCopy v0.99pb4
#
DISCID=dc0d7e10
DTITLE=Westlife - Coast To Coast
DYEAR=2000
DGENRE=Pop
TTITLE0=My Love
TTITLE1=What Makes a Man
TTITLE2=I Lay My Love On You
TTITLE3=Against All odds (Featuring Mariah Carey)
TTITLE4=When You're Looking Like That
TTITLE5=Close
TTITLE6=Somebody needs You
TTITLE7=Angel's Wings
TTITLE8=Soledad
TTITLE9=Puzzle Of My heart
TTITLE10=Dreams Come True
TTITLE11=No Place That far
TTITLE12=You Make Me Feel
TTITLE13=Loneliness Knows Me By Name
TTITLE14=Fragile heart
TTITLE15=Every Little Thing You Do
EXTD=
EXTT0=
EXTT1=
EXTT2=
EXTT3=
EXTT4=
EXTT5=
EXTT6=
EXTT7=
EXTT8=
EXTT9=
EXTT10=
EXTT11=
EXTT12=
EXTT13=
EXTT14=
EXTT15=
PLAYORDER=
